<svg width="36" height="36" viewBox="0 0 36 36" fill="none" xmlns="http://www.w3.org/2000/svg">
<rect width="36" height="36" rx="18" fill="#F3F4F6"/>
<path fill-rule="evenodd" clip-rule="evenodd" d="M18 12.167C18.4602 12.167 18.8333 12.5401 18.8333 13.0003V17.167H23C23.4602 17.167 23.8333 17.5401 23.8333 18.0003C23.8333 18.4606 23.4602 18.8337 23 18.8337H18.8333V23.0003C18.8333 23.4606 18.4602 23.8337 18 23.8337C17.5397 23.8337 17.1666 23.4606 17.1666 23.0003V18.8337L13 18.8337C12.5397 18.8337 12.1666 18.4606 12.1666 18.0003C12.1666 17.5401 12.5397 17.167 13 17.167L17.1666 17.167V13.0003C17.1666 12.5401 17.5397 12.167 18 12.167Z" fill="#111827"/>
</svg>
