<svg width="24" height="24" viewBox="0 0 24 24" fill="none" xmlns="http://www.w3.org/2000/svg">
<path d="M7.44705 20.1897C6.92311 20.3644 6.63995 20.9307 6.8146 21.4546C6.98925 21.9786 7.55557 22.2617 8.07951 22.0871L7.44705 20.1897ZM13.9941 21.5538L13.9033 20.5579L13.9941 21.5538ZM17.7325 20.723L18.1711 21.6217L17.7325 20.723ZM21.3047 17.4735L20.5276 16.8441L20.5276 16.8441L21.3047 17.4735ZM18.8615 15.4402L19.5686 16.1473L18.8615 15.4402ZM17.2163 17.0854L17.9234 17.7925L17.2163 17.0854ZM12.7479 16.8153C12.1956 16.8153 11.7479 17.2631 11.7479 17.8153C11.7479 18.3676 12.1956 18.8153 12.7479 18.8153V16.8153ZM20.9248 15.2359L20.3701 16.0679L20.9248 15.2359ZM9.0277 14.6908L9.47491 15.5852L9.47491 15.5852L9.0277 14.6908ZM13.4992 14.2818L13.7624 13.317L13.4992 14.2818ZM15.2454 14.758L14.9823 15.7228L15.2454 14.758ZM15.7987 16.8414L15.0916 16.1343L15.7987 16.8414ZM14.1177 17.1082C13.7272 17.4988 13.7272 18.1319 14.1177 18.5224C14.5082 18.913 15.1414 18.913 15.5319 18.5224L14.1177 17.1082ZM8.07951 22.0871C8.19626 22.0482 8.44761 22.0199 8.89936 22.0521C9.33067 22.0829 9.83463 22.1585 10.412 22.2492C11.5078 22.4213 12.8949 22.6581 14.0848 22.5497L13.9033 20.5579C13.0163 20.6387 11.911 20.4601 10.7223 20.2734C10.1573 20.1847 9.57089 20.095 9.04163 20.0572C8.5328 20.0209 7.95337 20.021 7.44705 20.1897L8.07951 22.0871ZM14.0848 22.5497C14.8487 22.4801 15.5009 22.4469 16.1017 22.3382C16.753 22.2203 17.3637 22.0157 18.1711 21.6217L17.2939 19.8243C16.6146 20.1558 16.1798 20.2916 15.7455 20.3702C15.2605 20.458 14.7869 20.4774 13.9033 20.5579L14.0848 22.5497ZM18.1711 21.6217C18.9545 21.2394 19.7101 20.623 20.3592 19.9993C21.018 19.3663 21.6161 18.6778 22.0818 18.1028L20.5276 16.8441C20.0931 17.3805 19.5523 18.001 18.9735 18.5571C18.3851 19.1225 17.8047 19.5751 17.2939 19.8243L18.1711 21.6217ZM18.1544 14.7331L16.5092 16.3782L17.9234 17.7925L19.5686 16.1473L18.1544 14.7331ZM15.454 16.8153H12.7479V18.8153H15.454V16.8153ZM16.5092 16.3782C16.2294 16.6581 15.8498 16.8153 15.454 16.8153V18.8153C16.3802 18.8153 17.2685 18.4474 17.9234 17.7925L16.5092 16.3782ZM21.4795 14.4038C20.4344 13.707 19.0426 13.8448 18.1544 14.7331L19.5686 16.1473C19.7827 15.9332 20.1182 15.9 20.3701 16.0679L21.4795 14.4038ZM22.0818 18.1028C23.0545 16.9018 22.6882 15.2096 21.4795 14.4038L20.3701 16.0679C20.677 16.2725 20.7012 16.6297 20.5276 16.8441L22.0818 18.1028ZM3.19405 14.6615H6.51713V12.6615H3.19405V14.6615ZM6.3479 14.4923V21.9692H8.3479V14.4923H6.3479ZM6.51713 21.7999H3.19405V23.7999H6.51713V21.7999ZM3.36328 21.9692V14.4923H1.36328V21.9692H3.36328ZM3.19405 21.7999C3.28751 21.7999 3.36328 21.8757 3.36328 21.9692H1.36328C1.36328 22.9803 2.18295 23.7999 3.19405 23.7999V21.7999ZM6.3479 21.9692C6.3479 21.8757 6.42367 21.7999 6.51713 21.7999V23.7999C7.52823 23.7999 8.3479 22.9803 8.3479 21.9692H6.3479ZM6.51713 14.6615C6.42366 14.6615 6.3479 14.5857 6.3479 14.4923H8.3479C8.3479 13.4812 7.52823 12.6615 6.51713 12.6615V14.6615ZM3.19405 12.6615C2.18294 12.6615 1.36328 13.4812 1.36328 14.4923H3.36328C3.36328 14.5857 3.28751 14.6615 3.19405 14.6615V12.6615ZM8.21049 16.2175L9.47491 15.5852L8.58048 13.7964L7.31607 14.4286L8.21049 16.2175ZM11.6284 15.0769H11.9691V13.0769H11.6284V15.0769ZM13.2361 15.2465L14.9823 15.7228L15.5086 13.7933L13.7624 13.317L13.2361 15.2465ZM15.0916 16.1343L14.1177 17.1082L15.5319 18.5224L16.5058 17.5485L15.0916 16.1343ZM14.9823 15.7228C15.1647 15.7725 15.2253 16.0007 15.0916 16.1343L16.5058 17.5485C17.7253 16.329 17.1724 14.247 15.5086 13.7933L14.9823 15.7228ZM11.9691 15.0769C12.3971 15.0769 12.8232 15.1339 13.2361 15.2465L13.7624 13.317C13.1779 13.1576 12.5749 13.0769 11.9691 13.0769V15.0769ZM9.47491 15.5852C10.1436 15.2509 10.8809 15.0769 11.6284 15.0769V13.0769C10.5704 13.0769 9.52684 13.3232 8.58048 13.7964L9.47491 15.5852ZM17.1479 7.8461C17.1479 9.1291 16.1078 10.1692 14.8248 10.1692V12.1692C17.2124 12.1692 19.1479 10.2337 19.1479 7.8461H17.1479ZM14.8248 10.1692C13.5418 10.1692 12.5017 9.1291 12.5017 7.8461H10.5017C10.5017 10.2337 12.4373 12.1692 14.8248 12.1692V10.1692ZM12.5017 7.8461C12.5017 6.5631 13.5418 5.52303 14.8248 5.52303V3.52303C12.4373 3.52303 10.5017 5.45854 10.5017 7.8461H12.5017ZM14.8248 5.52303C16.1078 5.52303 17.1479 6.5631 17.1479 7.8461H19.1479C19.1479 5.45854 17.2124 3.52303 14.8248 3.52303V5.52303ZM11.5017 6.8461C10.2187 6.8461 9.17867 5.80603 9.17867 4.52303H7.17867C7.17867 6.9106 9.11417 8.8461 11.5017 8.8461V6.8461ZM9.17867 4.52303C9.17867 3.24003 10.2187 2.19995 11.5017 2.19995V0.199951C9.11417 0.199951 7.17867 2.13546 7.17867 4.52303H9.17867ZM11.5017 2.19995C12.7847 2.19995 13.8248 3.24003 13.8248 4.52303H15.8248C15.8248 2.13546 13.8893 0.199951 11.5017 0.199951V2.19995Z" fill="#34D399"/>
</svg>
